<svg width="720" height="1536" viewBox="0 0 720 1536" fill="none" xmlns="http://www.w3.org/2000/svg">
  <rect width="720" height="1536" fill="#F7F8FC"/>

  <text x="18" y="45" fill="#A0A7B7" font-family="Arial, sans-serif" font-size="16">STEPS</text>
  <text x="35" y="88" fill="#53A9FF" font-family="Arial, sans-serif" font-size="26">0</text>
  <text x="96" y="45" fill="#A0A7B7" font-family="Arial, sans-serif" font-size="16">DIST</text>
  <text x="99" y="88" fill="#53A9FF" font-family="Arial, sans-serif" font-size="26">0.0 m</text>
  <text x="265" y="45" fill="#A0A7B7" font-family="Arial, sans-serif" font-size="16">NODES</text>
  <text x="318" y="88" fill="#D67EF6" font-family="Arial, sans-serif" font-size="26">2</text>
  <text x="455" y="45" fill="#A0A7B7" font-family="Arial, sans-serif" font-size="16">FLOOR</text>
  <text x="505" y="88" fill="#E2B034" font-family="Arial, sans-serif" font-size="26">G</text>
  <text x="603" y="45" fill="#A0A7B7" font-family="Arial, sans-serif" font-size="16">STATUS</text>
  <text x="593" y="88" fill="#E2B034" font-family="Arial, sans-serif" font-size="26">Stopped</text>

  <rect x="18" y="115" width="684" height="94" rx="34" fill="#FFFFFF" stroke="#2C3542" stroke-width="2.5"/>
  <text x="43" y="171" fill="#C2C7D1" font-family="Arial, sans-serif" font-size="24">Search rooms, halls, toilets...</text>

  <rect x="6" y="232" width="708" height="1210" rx="38" fill="#EFF2FA" stroke="#E3E8F2" stroke-width="2"/>
  <rect x="95" y="365" width="495" height="893" fill="#F6F8FD"/>
  <g opacity="0.7" stroke="#E6EBF4" stroke-width="1">
    <path d="M95 365V1258"/><path d="M131 365V1258"/><path d="M167 365V1258"/><path d="M203 365V1258"/><path d="M239 365V1258"/>
    <path d="M275 365V1258"/><path d="M311 365V1258"/><path d="M347 365V1258"/><path d="M383 365V1258"/><path d="M419 365V1258"/>
    <path d="M455 365V1258"/><path d="M491 365V1258"/><path d="M527 365V1258"/><path d="M563 365V1258"/>
    <path d="M95 365H590"/><path d="M95 401H590"/><path d="M95 437H590"/><path d="M95 473H590"/><path d="M95 509H590"/>
    <path d="M95 545H590"/><path d="M95 581H590"/><path d="M95 617H590"/><path d="M95 653H590"/><path d="M95 689H590"/>
    <path d="M95 725H590"/><path d="M95 761H590"/><path d="M95 797H590"/><path d="M95 833H590"/><path d="M95 869H590"/>
    <path d="M95 905H590"/><path d="M95 941H590"/><path d="M95 977H590"/><path d="M95 1013H590"/><path d="M95 1049H590"/>
    <path d="M95 1085H590"/><path d="M95 1121H590"/><path d="M95 1157H590"/><path d="M95 1193H590"/><path d="M95 1229H590"/>
  </g>

  <circle cx="201" cy="623" r="10" fill="#E84A5F"/>
  <circle cx="198" cy="620" r="11" stroke="#2B6DFF" stroke-width="3"/>
  <path d="M198 620L188 600" stroke="#2B6DFF" stroke-width="3.5" stroke-linecap="round"/>
  <path d="M188 600L197 605L191 613" fill="#2B6DFF"/>

  <circle cx="616" cy="308" r="43" fill="#FFFFFF" stroke="#ECEFF6" stroke-width="2"/>
  <circle cx="616" cy="308" r="36" fill="#232C45"/>
  <path d="M616 308L650 320" stroke="#FF3D3D" stroke-width="5" stroke-linecap="round"/>
  <path d="M616 308L585 298" stroke="#6B7280" stroke-width="5" stroke-linecap="round"/>

  <rect x="582" y="362" width="100" height="530" rx="30" fill="#FFFFFF" stroke="#EEF1F7" stroke-width="2"/>
  <path d="M582 392C582 375.431 595.431 362 612 362H652C668.569 362 682 375.431 682 392V452H582V392Z" fill="#2B6DFF"/>
  <text x="624" y="420" fill="#FFF3B0" font-family="Arial, sans-serif" font-size="24">G</text>
  <text x="626" y="506" fill="#252B35" font-family="Arial, sans-serif" font-size="22">1</text>
  <text x="626" y="590" fill="#252B35" font-family="Arial, sans-serif" font-size="22">2</text>
  <text x="626" y="674" fill="#252B35" font-family="Arial, sans-serif" font-size="22">3</text>
  <text x="626" y="758" fill="#252B35" font-family="Arial, sans-serif" font-size="22">4</text>
  <text x="626" y="842" fill="#252B35" font-family="Arial, sans-serif" font-size="22">5</text>

  <rect x="582" y="908" width="100" height="100" rx="28" fill="#FFFFFF" stroke="#EAEFF7" stroke-width="2"/>
  <text x="626" y="971" fill="#2B6DFF" font-family="Arial, sans-serif" font-size="34">+</text>
  <rect x="582" y="1021" width="100" height="100" rx="28" fill="#FFFFFF" stroke="#EAEFF7" stroke-width="2"/>
  <text x="629" y="1084" fill="#2B6DFF" font-family="Arial, sans-serif" font-size="34">-</text>

  <rect x="582" y="1136" width="100" height="150" rx="28" fill="#FFFFFF" stroke="#EAEFF7" stroke-width="2"/>
  <circle cx="632" cy="1178" r="14" fill="#20D97C"/>
  <circle cx="632" cy="1225" r="14" fill="#FF4B4B"/>
  <circle cx="632" cy="1272" r="14" fill="#FFB21F"/>

  <rect x="20" y="1188" width="535" height="148" rx="34" fill="#FFFFFF" fill-opacity="0.97" stroke="#E4E8F1" stroke-width="2"/>
  <rect x="36" y="1205" width="152" height="52" rx="18" fill="#19CC7A"/>
  <text x="90" y="1238" fill="#FFFFFF" font-family="Arial, sans-serif" font-size="22" font-weight="700">Left</text>
  <rect x="202" y="1205" width="152" height="52" rx="18" fill="#EEF2F8"/>
  <text x="250" y="1238" fill="#202733" font-family="Arial, sans-serif" font-size="22" font-weight="700">More</text>
  <rect x="368" y="1205" width="152" height="52" rx="18" fill="#2B6DFF"/>
  <text x="416" y="1238" fill="#FFFFFF" font-family="Arial, sans-serif" font-size="22" font-weight="700">Right</text>

  <rect x="38" y="1270" width="118" height="42" rx="14" fill="#F2F5FA" stroke="#D6DDE9" stroke-width="1.5"/>
  <text x="74" y="1297" fill="#27303C" font-family="Arial, sans-serif" font-size="18">Room</text>
  <rect x="168" y="1270" width="128" height="42" rx="14" fill="#F2F5FA" stroke="#D6DDE9" stroke-width="1.5"/>
  <text x="199" y="1297" fill="#27303C" font-family="Arial, sans-serif" font-size="18">Toilet</text>
  <rect x="308" y="1270" width="110" height="42" rx="14" fill="#F2F5FA" stroke="#D6DDE9" stroke-width="1.5"/>
  <text x="344" y="1297" fill="#27303C" font-family="Arial, sans-serif" font-size="18">Hall</text>
  <rect x="430" y="1270" width="90" height="42" rx="14" fill="#F2F5FA" stroke="#D6DDE9" stroke-width="1.5"/>
  <text x="462" y="1297" fill="#27303C" font-family="Arial, sans-serif" font-size="18">Lab</text>

  <rect x="10" y="1452" width="130" height="82" rx="30" fill="#19CC7A"/>
  <text x="58" y="1488" fill="#1B1E24" font-family="Arial, sans-serif" font-size="18">Sta</text>
  <text x="57" y="1514" fill="#1B1E24" font-family="Arial, sans-serif" font-size="18">rt</text>

  <rect x="152" y="1452" width="130" height="82" rx="18" fill="#F8F9FD" stroke="#2B3440" stroke-width="2"/>
  <text x="196" y="1504" fill="#2B3440" font-family="Arial, sans-serif" font-size="16">Clear</text>
  <rect x="294" y="1452" width="130" height="82" rx="18" fill="#F8F9FD" stroke="#2B3440" stroke-width="2"/>
  <text x="343" y="1504" fill="#2B3440" font-family="Arial, sans-serif" font-size="16">Node</text>
  <rect x="436" y="1452" width="130" height="82" rx="18" fill="#F8F9FD" stroke="#2B3440" stroke-width="2"/>
  <text x="480" y="1504" fill="#2B3440" font-family="Arial, sans-serif" font-size="16">Entry</text>
  <rect x="578" y="1452" width="130" height="82" rx="18" fill="#F8F9FD" stroke="#2B3440" stroke-width="2"/>
  <text x="629" y="1504" fill="#2B3440" font-family="Arial, sans-serif" font-size="16">Exit</text>
</svg>
