<svg width="1080" height="1920" viewBox="0 0 1080 1920" fill="none" xmlns="http://www.w3.org/2000/svg">
  <rect width="1080" height="1920" fill="#090E19"/>
  <rect x="120" y="40" width="840" height="1840" rx="56" fill="#141924" stroke="#293143" stroke-width="4"/>
  <rect x="155" y="90" width="770" height="1745" rx="40" fill="#0D111A"/>
  <rect x="400" y="66" width="280" height="26" rx="13" fill="#232938"/>

  <rect x="185" y="130" width="140" height="105" rx="26" fill="#191E2A" stroke="#242D3E" stroke-width="2"/>
  <text x="207" y="167" fill="#8C98B2" font-family="Arial, sans-serif" font-size="18" font-weight="700">STEPS</text>
  <text x="207" y="208" fill="#70D3FF" font-family="Arial, sans-serif" font-size="28" font-weight="700">248</text>

  <rect x="345" y="130" width="170" height="105" rx="26" fill="#191E2A" stroke="#242D3E" stroke-width="2"/>
  <text x="367" y="167" fill="#8C98B2" font-family="Arial, sans-serif" font-size="18" font-weight="700">DIST</text>
  <text x="367" y="208" fill="#70D3FF" font-family="Arial, sans-serif" font-size="28" font-weight="700">187 m</text>

  <rect x="535" y="130" width="140" height="105" rx="26" fill="#191E2A" stroke="#242D3E" stroke-width="2"/>
  <text x="557" y="167" fill="#8C98B2" font-family="Arial, sans-serif" font-size="18" font-weight="700">NODES</text>
  <text x="557" y="208" fill="#DD7DFF" font-family="Arial, sans-serif" font-size="28" font-weight="700">14</text>

  <rect x="695" y="130" width="110" height="105" rx="26" fill="#191E2A" stroke="#242D3E" stroke-width="2"/>
  <text x="717" y="167" fill="#8C98B2" font-family="Arial, sans-serif" font-size="18" font-weight="700">FLOOR</text>
  <text x="732" y="208" fill="#FFBF3D" font-family="Arial, sans-serif" font-size="28" font-weight="700">G</text>

  <rect x="825" y="130" width="70" height="105" rx="26" fill="#191E2A" stroke="#242D3E" stroke-width="2"/>
  <text x="836" y="167" fill="#8C98B2" font-family="Arial, sans-serif" font-size="16" font-weight="700">STATUS</text>
  <text x="837" y="208" fill="#35EC83" font-family="Arial, sans-serif" font-size="24" font-weight="700">Walk</text>

  <rect x="185" y="270" width="710" height="85" rx="28" fill="#171C28" stroke="#2A344A" stroke-width="2"/>
  <text x="220" y="323" fill="#7A87A0" font-family="Arial, sans-serif" font-size="22">Search rooms, halls, toilets...</text>

  <rect x="185" y="390" width="710" height="970" rx="32" fill="#101723" stroke="#243047" stroke-width="2"/>

  <g opacity="0.7" stroke="#1B2435" stroke-width="1">
    <path d="M210 415V1335"/><path d="M265 415V1335"/><path d="M320 415V1335"/><path d="M375 415V1335"/><path d="M430 415V1335"/>
    <path d="M485 415V1335"/><path d="M540 415V1335"/><path d="M595 415V1335"/><path d="M650 415V1335"/><path d="M705 415V1335"/>
    <path d="M760 415V1335"/><path d="M815 415V1335"/><path d="M870 415V1335"/>
    <path d="M210 415H870"/><path d="M210 470H870"/><path d="M210 525H870"/><path d="M210 580H870"/><path d="M210 635H870"/>
    <path d="M210 690H870"/><path d="M210 745H870"/><path d="M210 800H870"/><path d="M210 855H870"/><path d="M210 910H870"/>
    <path d="M210 965H870"/><path d="M210 1020H870"/><path d="M210 1075H870"/><path d="M210 1130H870"/><path d="M210 1185H870"/>
    <path d="M210 1240H870"/><path d="M210 1295H870"/>
  </g>

  <path d="M280 1180L280 980L475 980L475 780L670 780L670 620" stroke="#3C8EFF" stroke-width="14" stroke-linecap="round" stroke-linejoin="round"/>
  <circle cx="280" cy="1180" r="28" fill="#1EE884"/>
  <circle cx="670" cy="620" r="28" fill="#FF5454"/>
  <circle cx="670" cy="780" r="24" fill="#FFFFFF"/>
  <path d="M670 780L730 735" stroke="#83F3FF" stroke-width="8" stroke-linecap="round"/>
  <path d="M730 735L708 736L720 758Z" fill="#83F3FF"/>

  <rect x="770" y="430" width="90" height="90" rx="44" fill="#161E30"/>
  <circle cx="815" cy="475" r="26" stroke="#5C7298" stroke-width="3"/>
  <path d="M815 475V446" stroke="#76D6FF" stroke-width="5" stroke-linecap="round"/>
  <text x="810" y="510" fill="#FFFFFF" font-family="Arial, sans-serif" font-size="16" font-weight="700">N</text>

  <rect x="795" y="665" width="60" height="48" rx="14" fill="#0E6AFF"/>
  <text x="817" y="695" fill="#FFFFFF" font-family="Arial, sans-serif" font-size="18" font-weight="700">G</text>
  <rect x="795" y="723" width="60" height="48" rx="14" fill="#1B2233"/>
  <text x="818" y="753" fill="#FFFFFF" font-family="Arial, sans-serif" font-size="18" font-weight="700">1</text>
  <rect x="795" y="781" width="60" height="48" rx="14" fill="#1B2233"/>
  <text x="818" y="811" fill="#FFFFFF" font-family="Arial, sans-serif" font-size="18" font-weight="700">2</text>
  <rect x="795" y="839" width="60" height="48" rx="14" fill="#1B2233"/>
  <text x="818" y="869" fill="#FFFFFF" font-family="Arial, sans-serif" font-size="18" font-weight="700">3</text>

  <rect x="792" y="948" width="66" height="56" rx="18" fill="#182134"/>
  <text x="817" y="985" fill="#66C8FF" font-family="Arial, sans-serif" font-size="32" font-weight="700">+</text>
  <rect x="792" y="1018" width="66" height="56" rx="18" fill="#182134"/>
  <text x="818" y="1055" fill="#66C8FF" font-family="Arial, sans-serif" font-size="32" font-weight="700">-</text>

  <rect x="185" y="1400" width="155" height="90" rx="18" fill="#F59E0B"/>
  <text x="238" y="1455" fill="#111111" font-family="Arial, sans-serif" font-size="24" font-weight="700">Stop</text>

  <rect x="360" y="1400" width="110" height="90" rx="16" fill="#181C27" stroke="#313B4E" stroke-width="2"/>
  <text x="391" y="1455" fill="#ECF1F8" font-family="Arial, sans-serif" font-size="18" font-weight="700">Clear</text>
  <rect x="490" y="1400" width="110" height="90" rx="16" fill="#181C27" stroke="#313B4E" stroke-width="2"/>
  <text x="524" y="1455" fill="#ECF1F8" font-family="Arial, sans-serif" font-size="18" font-weight="700">Node</text>
  <rect x="620" y="1400" width="110" height="90" rx="16" fill="#181C27" stroke="#313B4E" stroke-width="2"/>
  <text x="649" y="1455" fill="#ECF1F8" font-family="Arial, sans-serif" font-size="18" font-weight="700">Entry</text>
  <rect x="750" y="1400" width="110" height="90" rx="16" fill="#181C27" stroke="#313B4E" stroke-width="2"/>
  <text x="784" y="1455" fill="#ECF1F8" font-family="Arial, sans-serif" font-size="18" font-weight="700">Exit</text>

  <rect x="180" y="1515" width="720" height="290" rx="28" fill="#161C28" stroke="#2A344A" stroke-width="2"/>
  <text x="215" y="1560" fill="#ECF2F8" font-family="Arial, sans-serif" font-size="28" font-weight="700">You stopped walking</text>
  <text x="215" y="1602" fill="#8E9AB0" font-family="Arial, sans-serif" font-size="18">Add a quick left/right node, or open more place options.</text>

  <rect x="215" y="1650" width="200" height="72" rx="18" fill="#196FFF"/>
  <text x="289" y="1695" fill="#FFFFFF" font-family="Arial, sans-serif" font-size="24" font-weight="700">Left</text>
  <rect x="440" y="1650" width="200" height="72" rx="18" fill="#212736" stroke="#364158" stroke-width="2"/>
  <text x="505" y="1695" fill="#F0F4F8" font-family="Arial, sans-serif" font-size="24" font-weight="700">More</text>
  <rect x="665" y="1650" width="200" height="72" rx="18" fill="#8B5CF6"/>
  <text x="729" y="1695" fill="#FFFFFF" font-family="Arial, sans-serif" font-size="24" font-weight="700">Right</text>

  <rect x="215" y="1745" width="150" height="50" rx="16" fill="#1C2235" stroke="#38445C" stroke-width="2"/>
  <text x="264" y="1777" fill="#E9EEF6" font-family="Arial, sans-serif" font-size="18" font-weight="700">Room</text>
  <rect x="385" y="1745" width="180" height="50" rx="16" fill="#1C2235" stroke="#38445C" stroke-width="2"/>
  <text x="440" y="1777" fill="#E9EEF6" font-family="Arial, sans-serif" font-size="18" font-weight="700">Toilet</text>
  <rect x="585" y="1745" width="150" height="50" rx="16" fill="#1C2235" stroke="#38445C" stroke-width="2"/>
  <text x="636" y="1777" fill="#E9EEF6" font-family="Arial, sans-serif" font-size="18" font-weight="700">Hall</text>

  <rect x="215" y="1810" width="130" height="50" rx="16" fill="#1C2235" stroke="#38445C" stroke-width="2"/>
  <text x="260" y="1842" fill="#E9EEF6" font-family="Arial, sans-serif" font-size="18" font-weight="700">Lab</text>
  <rect x="365" y="1810" width="180" height="50" rx="16" fill="#1C2235" stroke="#38445C" stroke-width="2"/>
  <text x="422" y="1842" fill="#E9EEF6" font-family="Arial, sans-serif" font-size="18" font-weight="700">Modify</text>
</svg>
